HIERARCHY
ROOT joint_Root
{
	OFFSET 0.0 0.0 0.0
	CHANNELS 6 Xposition Yposition Zposition Zrotation Xrotation Yrotation 
	JOINT Hips
	{
		OFFSET -0.726466 93.3139 -2.00062
		CHANNELS 6 Xposition Yposition Zposition Zrotation Xrotation Yrotation 
		JOINT Spine
		{
			OFFSET 15.7357 0.0 0.0
			CHANNELS 6 Xposition Yposition Zposition Zrotation Xrotation Yrotation 
			JOINT Chest
			{
				OFFSET 8.98455 -0.406207 0.0
				CHANNELS 6 Xposition Yposition Zposition Zrotation Xrotation Yrotation 
				JOINT Neck
				{
					OFFSET 16.3773 0.0 0.0
					CHANNELS 6 Xposition Yposition Zposition Zrotation Xrotation Yrotation 
					JOINT Head
					{
						OFFSET 6.45672 0.0 0.0
						CHANNELS 6 Xposition Yposition Zposition Zrotation Xrotation Yrotation 
						End Site
						{
							OFFSET 0.0 0.0 0.0
						}
					}
				}
				JOINT Shoulder_L
				{
					OFFSET 12.9942 -0.242716 4.98039
					CHANNELS 6 Xposition Yposition Zposition Zrotation Xrotation Yrotation 
					JOINT UpperArm_L
					{
						OFFSET 5.34809 0.0 0.0
						CHANNELS 6 Xposition Yposition Zposition Zrotation Xrotation Yrotation 
						JOINT LowerArm_L
						{
							OFFSET 24.3286 1.87007e-05 0.0
							CHANNELS 6 Xposition Yposition Zposition Zrotation Xrotation Yrotation 
							JOINT Hand_L
							{
								OFFSET 22.2916 0.0 0.0
								CHANNELS 6 Xposition Yposition Zposition Zrotation Xrotation Yrotation 
								End Site
								{
									OFFSET 0.0 0.0 0.0
								}
							}
						}
					}
				}
				JOINT Shoulder_R
				{
					OFFSET 12.9945 -0.242716 -4.98039
					CHANNELS 6 Xposition Yposition Zposition Zrotation Xrotation Yrotation 
					JOINT UpperArm_R
					{
						OFFSET -5.34813 0.0 0.0
						CHANNELS 6 Xposition Yposition Zposition Zrotation Xrotation Yrotation 
						JOINT LowerArm_R
						{
							OFFSET -24.3289 0.000322201 0.0
							CHANNELS 6 Xposition Yposition Zposition Zrotation Xrotation Yrotation 
							JOINT Hand_R
							{
								OFFSET -22.2915 -0.000108084 0.0
								CHANNELS 6 Xposition Yposition Zposition Zrotation Xrotation Yrotation 
								End Site
								{
									OFFSET 0.0 0.0 0.0
								}
							}
						}
					}
				}
			}
		}
		JOINT UpperLeg_L
		{
			OFFSET -2.19248 -6.46944 0.0
			CHANNELS 6 Xposition Yposition Zposition Zrotation Xrotation Yrotation 
			JOINT LowerLeg_L
			{
				OFFSET 39.0811 0.0 -1.23785e-05
				CHANNELS 6 Xposition Yposition Zposition Zrotation Xrotation Yrotation 
				JOINT Foot_L
				{
					OFFSET 40.9854 0.0 -1.26872e-05
					CHANNELS 6 Xposition Yposition Zposition Zrotation Xrotation Yrotation 
					JOINT Toes_L
					{
						OFFSET 11.7543 0.0 0.0
						CHANNELS 6 Xposition Yposition Zposition Zrotation Xrotation Yrotation 
						End Site
						{
							OFFSET 0.0 0.0 0.0
						}
					}
				}
			}
		}
		JOINT UpperLeg_R
		{
			OFFSET -2.19251 6.46944 0.0
			CHANNELS 6 Xposition Yposition Zposition Zrotation Xrotation Yrotation 
			JOINT LowerLeg_R
			{
				OFFSET -39.0811 -0.00228153 -0.0401928
				CHANNELS 6 Xposition Yposition Zposition Zrotation Xrotation Yrotation 
				JOINT Foot_R
				{
					OFFSET -40.9854 0.0 0.0
					CHANNELS 6 Xposition Yposition Zposition Zrotation Xrotation Yrotation 
					JOINT Toes_R
					{
						OFFSET -11.7543 0.0 0.0
						CHANNELS 6 Xposition Yposition Zposition Zrotation Xrotation Yrotation 
						End Site
						{
							OFFSET 0.0 0.0 0.0
						}
					}
				}
			}
		}
	}
}
MOTION
Frames:	5
Frame Time:	0.0333333
0.000000 0.000000 0.000000 0.000000 0.000000 -0.000000 -0.637564 92.092100 -0.361691 88.091400 0.905770 2.386650 15.735700 0.000005 -0.000001 81.891800 85.815700 -81.347900 8.984550 -0.406207 -0.000000 0.525129 -1.214310 1.092760 16.377300 -0.000001 -0.000001 0.468474 -2.405910 0.782654 6.456720 -0.000001 -0.000000 1.459850 -1.857240 -0.750673 12.994200 -0.242716 4.980390 -90.114800 0.346977 -71.690100 5.348090 -0.000007 -0.000001 -69.376200 33.727200 -12.081700 24.328600 0.000019 0.000005 2.293100 5.013740 -24.616200 22.291600 -0.000001 0.000005 5.242070 5.538300 -8.165380 12.994500 -0.242716 -4.980390 88.050900 5.547560 -70.606800 -5.348130 -0.000001 -0.000004 -67.166200 32.706800 -13.411100 -24.328900 0.000322 -0.000009 1.429370 3.834120 -20.477200 -22.291500 -0.000108 -0.000004 13.298800 5.525350 -7.592010 -2.192480 -6.469440 -0.000000 -169.709000 -16.916000 -3.908350 39.081100 -0.000007 -0.000012 -0.176040 0.445961 21.541500 40.985400 -0.000006 -0.000013 -6.826220 -1.249970 -63.254500 11.754300 -0.000000 0.000003 -0.000123 -0.001227 -16.624400 -2.192510 6.469440 -0.000001 173.650000 24.036600 179.614000 -39.081100 -0.002282 -0.040193 -0.052189 0.165375 18.555900 -40.985400 0.000008 0.000006 -4.601460 1.087810 -63.028500 -11.754300 -0.000006 -0.000006 -0.002609 -0.036101 -18.041200
0.000000 0.000000 0.000000 0.000000 0.000000 -0.000000 -0.645456 92.082700 -0.415391 88.098800 0.895860 2.441100 15.735700 0.000005 -0.000001 81.924200 85.812200 -81.395500 8.984550 -0.406207 -0.000000 0.532558 -1.209620 1.062380 16.377300 -0.000001 -0.000001 0.277060 -2.412790 0.814296 6.456720 -0.000001 -0.000000 1.404280 -1.839140 -0.638445 12.994200 -0.242716 4.980390 -90.131700 0.396322 -71.623200 5.348090 -0.000007 -0.000001 -69.192800 31.566900 -11.955300 24.328600 0.000019 0.000005 2.746220 5.859130 -25.167600 22.291600 -0.000001 0.000005 5.264340 5.540800 -8.278830 12.994500 -0.242716 -4.980390 88.047600 5.524300 -70.501000 -5.348130 -0.000001 -0.000004 -67.093300 30.675000 -13.235800 -24.328900 0.000322 -0.000009 1.586450 4.173780 -20.846000 -22.291500 -0.000108 -0.000004 13.638300 5.524520 -7.556210 -2.192480 -6.469440 -0.000000 -169.700000 -16.939000 -3.931760 39.081100 -0.000007 -0.000012 -0.176734 0.445743 21.628200 40.985400 -0.000006 -0.000013 -6.816550 -1.220390 -63.257500 11.754300 -0.000000 0.000003 -0.000108 -0.001098 -16.619600 -2.192510 6.469440 -0.000001 173.635000 23.942600 179.583000 -39.081100 -0.002282 -0.040193 -0.055425 0.174023 18.654400 -40.985400 0.000008 0.000006 -4.669250 1.025700 -63.048500 -11.754300 -0.000006 -0.000006 -0.002674 -0.036859 -18.072000
0.000000 0.000000 0.000000 0.000000 0.000000 -0.000000 -0.657961 92.087700 -0.466596 88.075600 0.962746 2.520260 15.735700 0.000005 -0.000001 81.600700 85.820300 -81.079900 8.984550 -0.406207 -0.000000 0.509875 -1.253650 1.046400 16.377300 -0.000001 -0.000001 0.116956 -2.426970 0.824694 6.456720 -0.000001 -0.000000 1.340900 -1.864470 -0.485772 12.994200 -0.242716 4.980390 -90.132800 0.393427 -71.352900 5.348090 -0.000007 -0.000001 -68.399300 29.046700 -12.153900 24.328600 0.000019 0.000005 2.848740 5.982360 -25.521800 22.291600 -0.000001 0.000005 5.580410 5.547670 -8.596740 12.994500 -0.242716 -4.980390 88.058700 5.428350 -70.287700 -5.348130 -0.000001 -0.000004 -66.703400 27.973500 -13.253600 -24.328900 0.000322 -0.000009 1.799400 4.688940 -21.033500 -22.291500 -0.000108 -0.000004 13.771900 5.523600 -7.516210 -2.192480 -6.469440 -0.000000 -169.660000 -16.856400 -3.892370 39.081100 -0.000007 -0.000012 -0.176092 0.444282 21.621200 40.985400 -0.000006 -0.000013 -6.811420 -1.198990 -63.221900 11.754300 -0.000000 0.000003 -0.000124 -0.001234 -16.624700 -2.192510 6.469440 -0.000001 173.678000 23.908400 179.605000 -39.081100 -0.002282 -0.040193 -0.051400 0.161589 18.709300 -40.985400 0.000008 0.000006 -4.466120 0.912122 -63.070500 -11.754300 -0.000006 -0.000006 -0.002799 -0.038307 -18.130900
0.000000 0.000000 0.000000 0.000000 0.000000 -0.000000 -0.646580 92.085500 -0.509921 88.111800 0.872693 2.637890 15.735700 0.000005 -0.000001 82.001000 85.839500 -81.507200 8.984550 -0.406207 -0.000000 0.479522 -1.188950 0.991839 16.377300 -0.000001 -0.000001 0.012682 -2.464070 0.820619 6.456720 -0.000001 -0.000000 1.277030 -1.937160 -0.367817 12.994200 -0.242716 4.980390 -90.124100 0.364184 -71.178500 5.348090 -0.000007 -0.000001 -66.831000 25.994100 -12.704800 24.328600 0.000019 0.000005 2.704880 5.653850 -25.619500 22.291600 -0.000001 0.000005 6.033020 5.549760 -8.694650 12.994500 -0.242716 -4.980390 88.075200 5.339140 -70.141700 -5.348130 -0.000001 -0.000004 -65.612500 24.643300 -13.672400 -24.328900 0.000322 -0.000009 1.903180 5.031840 -20.759900 -22.291500 -0.000108 -0.000004 14.009300 5.524960 -7.575330 -2.192480 -6.469440 -0.000000 -169.667000 -16.913600 -3.784500 39.081100 -0.000007 -0.000012 -0.176072 0.443979 21.632400 40.985400 -0.000006 -0.000013 -6.803770 -1.230270 -63.208500 11.754300 -0.000000 0.000003 -0.000102 -0.001048 -16.617800 -2.192510 6.469440 -0.000001 173.586000 23.825000 179.677000 -39.081100 -0.002282 -0.040193 -0.053588 0.167813 18.733600 -40.985400 0.000008 0.000006 -4.622750 0.961476 -63.038200 -11.754300 -0.000006 -0.000006 -0.003034 -0.040988 -18.240000
0.000000 0.000000 0.000000 0.000000 0.000000 -0.000000 -0.657252 92.079800 -0.563674 88.093400 0.905212 2.812960 15.735700 0.000005 -0.000001 81.768300 85.834800 -81.277500 8.984550 -0.406207 -0.000000 0.484136 -1.223530 0.986109 16.377300 -0.000001 -0.000001 -0.144421 -2.437960 0.764126 6.456720 -0.000001 -0.000000 1.264730 -2.014580 -0.225225 12.994200 -0.242716 4.980390 -90.082400 0.240456 -71.095700 5.348090 -0.000007 -0.000001 -64.622300 22.090400 -13.676900 24.328600 0.000019 0.000005 2.805200 5.984210 -25.173000 22.291600 -0.000001 0.000005 6.432830 5.551070 -8.756570 12.994500 -0.242716 -4.980390 88.110000 5.221470 -70.069000 -5.348130 -0.000001 -0.000004 -63.578400 20.982800 -14.873400 -24.328900 0.000322 -0.000009 1.911150 5.376860 -19.610800 -22.291500 -0.000108 -0.000004 14.435900 5.524770 -7.566930 -2.192480 -6.469440 -0.000000 -169.607000 -16.792900 -3.682040 39.081100 -0.000007 -0.000012 -0.176707 0.443988 21.702800 40.985400 -0.000006 -0.000013 -6.803820 -1.238690 -63.217400 11.754300 -0.000000 0.000003 -0.000114 -0.001148 -16.621500 -2.192510 6.469440 -0.000001 173.537000 23.868100 179.798000 -39.081100 -0.002282 -0.040193 -0.055116 0.171595 18.807000 -40.985400 0.000008 0.000006 -4.605360 0.974802 -63.041400 -11.754300 -0.000006 -0.000006 -0.002905 -0.039521 -18.180300
